<svg width="208" height="210" viewBox="0 0 208 210" fill="none" xmlns="http://www.w3.org/2000/svg">
<path d="M8.992 201.488C8.33067 201.915 7.40267 202.128 6.208 202.128C4.608 202.128 3.28533 201.627 2.24 200.624C1.20533 199.611 0.688 198.272 0.688 196.608C0.688 194.976 1.2 193.648 2.224 192.624C3.25867 191.589 4.58667 191.072 6.208 191.072C7.392 191.072 8.31467 191.269 8.976 191.664V193.632C8.16533 193.163 7.26933 192.928 6.288 192.928C5.30667 192.928 4.48533 193.264 3.824 193.936C3.17333 194.597 2.848 195.488 2.848 196.608C2.848 197.728 3.17333 198.619 3.824 199.28C4.48533 199.941 5.344 200.272 6.4 200.272C7.41333 200.272 8.27733 200.005 8.992 199.472V201.488ZM17.83 202H15.91V197.024C15.91 196.512 15.7767 196.112 15.51 195.824C15.254 195.536 14.918 195.392 14.502 195.392C14.0433 195.392 13.6273 195.568 13.254 195.92C12.8913 196.272 12.71 196.848 12.71 197.648V202H10.79V190.688H12.71V195.264C13.1473 194.283 13.974 193.792 15.19 193.792C15.9793 193.792 16.614 194.043 17.094 194.544C17.5847 195.035 17.83 195.749 17.83 196.688V202ZM27.2289 197.92C27.2289 199.147 26.8822 200.155 26.1889 200.944C25.5062 201.733 24.5462 202.128 23.3089 202.128C22.0822 202.128 21.1222 201.744 20.4289 200.976C19.7462 200.208 19.4049 199.227 19.4049 198.032C19.4049 196.795 19.7622 195.776 20.4769 194.976C21.1915 194.165 22.1355 193.76 23.3089 193.76C24.5569 193.76 25.5222 194.155 26.2049 194.944C26.8875 195.723 27.2289 196.715 27.2289 197.92ZM21.4209 197.968C21.4209 198.715 21.5862 199.339 21.9169 199.84C22.2475 200.341 22.7169 200.592 23.3249 200.592C23.9542 200.592 24.4289 200.347 24.7489 199.856C25.0689 199.365 25.2289 198.741 25.2289 197.984C25.2289 197.205 25.0742 196.571 24.7649 196.08C24.4555 195.579 23.9702 195.328 23.3089 195.328C22.7009 195.328 22.2315 195.579 21.9009 196.08C21.5809 196.581 21.4209 197.211 21.4209 197.968ZM36.2758 197.92C36.2758 199.147 35.9291 200.155 35.2358 200.944C34.5531 201.733 33.5931 202.128 32.3558 202.128C31.1291 202.128 30.1691 201.744 29.4758 200.976C28.7931 200.208 28.4518 199.227 28.4518 198.032C28.4518 196.795 28.8091 195.776 29.5238 194.976C30.2384 194.165 31.1824 193.76 32.3558 193.76C33.6038 193.76 34.5691 194.155 35.2518 194.944C35.9344 195.723 36.2758 196.715 36.2758 197.92ZM30.4678 197.968C30.4678 198.715 30.6331 199.339 30.9638 199.84C31.2944 200.341 31.7638 200.592 32.3718 200.592C33.0011 200.592 33.4758 200.347 33.7958 199.856C34.1158 199.365 34.2758 198.741 34.2758 197.984C34.2758 197.205 34.1211 196.571 33.8118 196.08C33.5024 195.579 33.0171 195.328 32.3558 195.328C31.7478 195.328 31.2784 195.579 30.9478 196.08C30.6278 196.581 30.4678 197.211 30.4678 197.968ZM43.2266 199.664C43.2266 200.421 42.9546 201.013 42.4106 201.44C41.8666 201.867 41.1413 202.08 40.2346 202.08C39.232 202.08 38.4213 201.915 37.8026 201.584V199.824C38.5173 200.304 39.2906 200.544 40.1226 200.544C40.4746 200.544 40.7466 200.48 40.9386 200.352C41.1413 200.213 41.2426 200.027 41.2426 199.792C41.2426 199.653 41.2106 199.531 41.1466 199.424C41.0826 199.307 40.96 199.195 40.7786 199.088C40.5973 198.981 40.4533 198.907 40.3466 198.864C40.2506 198.811 40.0533 198.72 39.7546 198.592C39.7226 198.581 39.696 198.571 39.6746 198.56C39.664 198.549 39.6426 198.539 39.6106 198.528C39.5786 198.517 39.552 198.507 39.5306 198.496C38.3466 197.963 37.7546 197.195 37.7546 196.192C37.7546 195.445 38.0373 194.859 38.6026 194.432C39.168 194.005 39.8773 193.792 40.7306 193.792C41.552 193.792 42.2346 193.909 42.7786 194.144V195.84C42.2453 195.52 41.5786 195.36 40.7786 195.36C40.448 195.36 40.1866 195.435 39.9946 195.584C39.8133 195.723 39.7226 195.904 39.7226 196.128C39.7226 196.213 39.7333 196.293 39.7546 196.368C39.7866 196.443 39.8346 196.517 39.8986 196.592C39.9733 196.656 40.0426 196.715 40.1066 196.768C40.1706 196.821 40.2613 196.88 40.3786 196.944C40.496 196.997 40.5973 197.045 40.6826 197.088C40.768 197.131 40.8853 197.184 41.0346 197.248C41.184 197.312 41.3013 197.365 41.3866 197.408C41.952 197.685 42.4 197.995 42.7306 198.336C43.0613 198.677 43.2266 199.12 43.2266 199.664ZM50.9508 201.552C50.3854 201.904 49.5694 202.08 48.5028 202.08C47.2121 202.08 46.1934 201.696 45.4468 200.928C44.7001 200.16 44.3268 199.168 44.3268 197.952C44.3268 196.661 44.6788 195.648 45.3828 194.912C46.0868 194.176 46.9668 193.808 48.0228 193.808C49.0788 193.808 49.9161 194.128 50.5348 194.768C51.1534 195.408 51.4628 196.341 51.4628 197.568C51.4628 197.867 51.4254 198.251 51.3508 198.72H46.2628C46.4014 199.307 46.6894 199.755 47.1268 200.064C47.5748 200.373 48.1294 200.528 48.7908 200.528C49.6441 200.528 50.3641 200.315 50.9508 199.888V201.552ZM48.0708 195.312C47.6121 195.312 47.2121 195.483 46.8708 195.824C46.5401 196.155 46.3268 196.64 46.2308 197.28H49.6388V197.04C49.6174 196.517 49.4734 196.101 49.2068 195.792C48.9508 195.472 48.5721 195.312 48.0708 195.312ZM59.8709 200.64C60.2975 200.64 60.6282 200.517 60.8629 200.272C61.1082 200.016 61.2309 199.685 61.2309 199.28V198.512H60.2389C59.7375 198.512 59.3535 198.619 59.0869 198.832C58.8202 199.035 58.6869 199.296 58.6869 199.616C58.6869 200.299 59.0815 200.64 59.8709 200.64ZM61.3109 201.024C60.9375 201.717 60.2335 202.064 59.1989 202.064C58.4309 202.064 57.8175 201.84 57.3589 201.392C56.9109 200.944 56.6869 200.379 56.6869 199.696C56.6869 198.928 56.9749 198.325 57.5509 197.888C58.1269 197.451 58.9589 197.232 60.0469 197.232H61.2309V196.736C61.2309 196.288 61.1135 195.947 60.8789 195.712C60.6442 195.477 60.2442 195.36 59.6789 195.36C58.8149 195.36 58.0202 195.6 57.2949 196.08V194.304C57.9029 193.931 58.7775 193.744 59.9189 193.744C62.1162 193.744 63.2149 194.768 63.2149 196.816V202H61.3109V201.024ZM73.5356 201.808C73.1623 201.989 72.6823 202.08 72.0956 202.08C70.3463 202.08 69.4716 201.195 69.4716 199.424V195.328H68.2556V193.888H69.4716V191.936H71.3916V193.888H73.4076V195.328H71.3916V199.456C71.3916 199.797 71.4823 200.059 71.6636 200.24C71.845 200.411 72.0956 200.496 72.4156 200.496C72.821 200.496 73.1943 200.384 73.5356 200.16V201.808ZM77.9021 200.64C78.3288 200.64 78.6595 200.517 78.8941 200.272C79.1395 200.016 79.2621 199.685 79.2621 199.28V198.512H78.2701C77.7688 198.512 77.3848 198.619 77.1181 198.832C76.8515 199.035 76.7181 199.296 76.7181 199.616C76.7181 200.299 77.1128 200.64 77.9021 200.64ZM79.3421 201.024C78.9688 201.717 78.2648 202.064 77.2301 202.064C76.4621 202.064 75.8488 201.84 75.3901 201.392C74.9421 200.944 74.7181 200.379 74.7181 199.696C74.7181 198.928 75.0061 198.325 75.5821 197.888C76.1581 197.451 76.9901 197.232 78.0781 197.232H79.2621V196.736C79.2621 196.288 79.1448 195.947 78.9101 195.712C78.6755 195.477 78.2755 195.36 77.7101 195.36C76.8461 195.36 76.0515 195.6 75.3261 196.08V194.304C75.9341 193.931 76.8088 193.744 77.9501 193.744C80.1475 193.744 81.2461 194.768 81.2461 196.816V202H79.3421V201.024ZM85.1795 202H83.2435V190.688H85.1795V195.12C85.7448 194.224 86.5555 193.776 87.6115 193.776C88.6248 193.776 89.4568 194.155 90.1075 194.912C90.7688 195.659 91.0995 196.672 91.0995 197.952C91.0995 199.104 90.7848 200.085 90.1555 200.896C89.5368 201.707 88.6942 202.112 87.6275 202.112C86.5608 202.112 85.7448 201.659 85.1795 200.752V202ZM85.1795 197.872C85.1795 198.715 85.3715 199.36 85.7555 199.808C86.1395 200.245 86.6195 200.464 87.1955 200.464C87.7502 200.464 88.2142 200.235 88.5875 199.776C88.9608 199.317 89.1475 198.72 89.1475 197.984C89.1475 197.173 88.9555 196.544 88.5715 196.096C88.1982 195.637 87.7342 195.408 87.1795 195.408C86.6568 195.408 86.1928 195.616 85.7875 196.032C85.3822 196.437 85.1795 197.051 85.1795 197.872ZM94.7431 202H92.8231V190.688H94.7431V202ZM103.091 201.552C102.526 201.904 101.71 202.08 100.643 202.08C99.3527 202.08 98.334 201.696 97.5874 200.928C96.8407 200.16 96.4674 199.168 96.4674 197.952C96.4674 196.661 96.8194 195.648 97.5234 194.912C98.2274 194.176 99.1074 193.808 100.163 193.808C101.219 193.808 102.057 194.128 102.675 194.768C103.294 195.408 103.603 196.341 103.603 197.568C103.603 197.867 103.566 198.251 103.491 198.72H98.4034C98.542 199.307 98.83 199.755 99.2674 200.064C99.7154 200.373 100.27 200.528 100.931 200.528C101.785 200.528 102.505 200.315 103.091 199.888V201.552ZM100.211 195.312C99.7527 195.312 99.3527 195.483 99.0114 195.824C98.6807 196.155 98.4674 196.64 98.3714 197.28H101.779V197.04C101.758 196.517 101.614 196.101 101.347 195.792C101.091 195.472 100.713 195.312 100.211 195.312ZM113.708 201.808C113.334 201.989 112.854 202.08 112.268 202.08C110.518 202.08 109.644 201.195 109.644 199.424V195.328H108.428V193.888H109.644V191.936H111.564V193.888H113.58V195.328H111.564V199.456C111.564 199.797 111.654 200.059 111.836 200.24C112.017 200.411 112.268 200.496 112.588 200.496C112.993 200.496 113.366 200.384 113.708 200.16V201.808ZM122.682 197.92C122.682 199.147 122.335 200.155 121.642 200.944C120.959 201.733 119.999 202.128 118.762 202.128C117.535 202.128 116.575 201.744 115.882 200.976C115.199 200.208 114.858 199.227 114.858 198.032C114.858 196.795 115.215 195.776 115.93 194.976C116.645 194.165 117.589 193.76 118.762 193.76C120.01 193.76 120.975 194.155 121.658 194.944C122.341 195.723 122.682 196.715 122.682 197.92ZM116.874 197.968C116.874 198.715 117.039 199.339 117.37 199.84C117.701 200.341 118.17 200.592 118.778 200.592C119.407 200.592 119.882 200.347 120.202 199.856C120.522 199.365 120.682 198.741 120.682 197.984C120.682 197.205 120.527 196.571 120.218 196.08C119.909 195.579 119.423 195.328 118.762 195.328C118.154 195.328 117.685 195.579 117.354 196.08C117.034 196.581 116.874 197.211 116.874 197.968ZM135.348 201.264C135.348 202.544 134.975 203.504 134.228 204.144C133.492 204.795 132.554 205.12 131.412 205.12C130.346 205.12 129.412 204.928 128.612 204.544V202.592C129.338 203.104 130.207 203.36 131.22 203.36C132.692 203.36 133.428 202.656 133.428 201.248V200.544C132.938 201.344 132.17 201.744 131.124 201.744C130.218 201.744 129.439 201.413 128.788 200.752C128.148 200.08 127.828 199.109 127.828 197.84C127.828 196.667 128.132 195.701 128.74 194.944C129.359 194.176 130.17 193.792 131.172 193.792C132.186 193.792 132.938 194.213 133.428 195.056V193.888H135.348V201.264ZM129.828 197.84C129.828 198.597 129.994 199.179 130.324 199.584C130.655 199.979 131.076 200.176 131.588 200.176C132.111 200.176 132.548 199.973 132.9 199.568C133.252 199.152 133.428 198.613 133.428 197.952C133.428 197.088 133.258 196.453 132.916 196.048C132.575 195.643 132.143 195.44 131.62 195.44C131.066 195.44 130.628 195.659 130.308 196.096C129.988 196.523 129.828 197.104 129.828 197.84ZM143.529 201.552C142.964 201.904 142.148 202.08 141.081 202.08C139.79 202.08 138.772 201.696 138.025 200.928C137.278 200.16 136.905 199.168 136.905 197.952C136.905 196.661 137.257 195.648 137.961 194.912C138.665 194.176 139.545 193.808 140.601 193.808C141.657 193.808 142.494 194.128 143.113 194.768C143.732 195.408 144.041 196.341 144.041 197.568C144.041 197.867 144.004 198.251 143.929 198.72H138.841C138.98 199.307 139.268 199.755 139.705 200.064C140.153 200.373 140.708 200.528 141.369 200.528C142.222 200.528 142.942 200.315 143.529 199.888V201.552ZM140.649 195.312C140.19 195.312 139.79 195.483 139.449 195.824C139.118 196.155 138.905 196.64 138.809 197.28H142.217V197.04C142.196 196.517 142.052 196.101 141.785 195.792C141.529 195.472 141.15 195.312 140.649 195.312ZM150.286 201.808C149.912 201.989 149.432 202.08 148.846 202.08C147.096 202.08 146.222 201.195 146.222 199.424V195.328H145.006V193.888H146.222V191.936H148.142V193.888H150.158V195.328H148.142V199.456C148.142 199.797 148.232 200.059 148.414 200.24C148.595 200.411 148.846 200.496 149.166 200.496C149.571 200.496 149.944 200.384 150.286 200.16V201.808ZM161.024 199.664C161.024 200.421 160.752 201.013 160.208 201.44C159.664 201.867 158.938 202.08 158.032 202.08C157.029 202.08 156.218 201.915 155.6 201.584V199.824C156.314 200.304 157.088 200.544 157.92 200.544C158.272 200.544 158.544 200.48 158.736 200.352C158.938 200.213 159.04 200.027 159.04 199.792C159.04 199.653 159.008 199.531 158.944 199.424C158.88 199.307 158.757 199.195 158.576 199.088C158.394 198.981 158.25 198.907 158.144 198.864C158.048 198.811 157.85 198.72 157.552 198.592C157.52 198.581 157.493 198.571 157.472 198.56C157.461 198.549 157.44 198.539 157.408 198.528C157.376 198.517 157.349 198.507 157.328 198.496C156.144 197.963 155.552 197.195 155.552 196.192C155.552 195.445 155.834 194.859 156.4 194.432C156.965 194.005 157.674 193.792 158.528 193.792C159.349 193.792 160.032 193.909 160.576 194.144V195.84C160.042 195.52 159.376 195.36 158.576 195.36C158.245 195.36 157.984 195.435 157.792 195.584C157.61 195.723 157.52 195.904 157.52 196.128C157.52 196.213 157.53 196.293 157.552 196.368C157.584 196.443 157.632 196.517 157.696 196.592C157.77 196.656 157.84 196.715 157.904 196.768C157.968 196.821 158.058 196.88 158.176 196.944C158.293 196.997 158.394 197.045 158.48 197.088C158.565 197.131 158.682 197.184 158.832 197.248C158.981 197.312 159.098 197.365 159.184 197.408C159.749 197.685 160.197 197.995 160.528 198.336C160.858 198.677 161.024 199.12 161.024 199.664ZM167.036 201.808C166.662 201.989 166.182 202.08 165.596 202.08C163.846 202.08 162.972 201.195 162.972 199.424V195.328H161.756V193.888H162.972V191.936H164.892V193.888H166.908V195.328H164.892V199.456C164.892 199.797 164.982 200.059 165.164 200.24C165.345 200.411 165.596 200.496 165.916 200.496C166.321 200.496 166.694 200.384 167.036 200.16V201.808ZM171.402 200.64C171.829 200.64 172.159 200.517 172.394 200.272C172.639 200.016 172.762 199.685 172.762 199.28V198.512H171.77C171.269 198.512 170.885 198.619 170.618 198.832C170.351 199.035 170.218 199.296 170.218 199.616C170.218 200.299 170.613 200.64 171.402 200.64ZM172.842 201.024C172.469 201.717 171.765 202.064 170.73 202.064C169.962 202.064 169.349 201.84 168.89 201.392C168.442 200.944 168.218 200.379 168.218 199.696C168.218 198.928 168.506 198.325 169.082 197.888C169.658 197.451 170.49 197.232 171.578 197.232H172.762V196.736C172.762 196.288 172.645 195.947 172.41 195.712C172.175 195.477 171.775 195.36 171.21 195.36C170.346 195.36 169.551 195.6 168.826 196.08V194.304C169.434 193.931 170.309 193.744 171.45 193.744C173.647 193.744 174.746 194.768 174.746 196.816V202H172.842V201.024ZM178.648 202H176.712L176.728 193.888H178.648V195.328C179.021 194.325 179.704 193.824 180.696 193.824C180.92 193.824 181.101 193.84 181.24 193.872V195.728C180.994 195.621 180.722 195.568 180.424 195.568C179.901 195.568 179.474 195.781 179.144 196.208C178.813 196.635 178.648 197.168 178.648 197.808V202ZM186.848 201.808C186.475 201.989 185.995 202.08 185.408 202.08C183.659 202.08 182.784 201.195 182.784 199.424V195.328H181.568V193.888H182.784V191.936H184.704V193.888H186.72V195.328H184.704V199.456C184.704 199.797 184.795 200.059 184.976 200.24C185.157 200.411 185.408 200.496 185.728 200.496C186.133 200.496 186.507 200.384 186.848 200.16V201.808ZM194.623 201.552C194.057 201.904 193.241 202.08 192.175 202.08C190.884 202.08 189.865 201.696 189.119 200.928C188.372 200.16 187.999 199.168 187.999 197.952C187.999 196.661 188.351 195.648 189.055 194.912C189.759 194.176 190.639 193.808 191.695 193.808C192.751 193.808 193.588 194.128 194.207 194.768C194.825 195.408 195.135 196.341 195.135 197.568C195.135 197.867 195.097 198.251 195.023 198.72H189.935C190.073 199.307 190.361 199.755 190.799 200.064C191.247 200.373 191.801 200.528 192.463 200.528C193.316 200.528 194.036 200.315 194.623 199.888V201.552ZM191.743 195.312C191.284 195.312 190.884 195.483 190.543 195.824C190.212 196.155 189.999 196.64 189.903 197.28H193.311V197.04C193.289 196.517 193.145 196.101 192.879 195.792C192.623 195.472 192.244 195.312 191.743 195.312ZM198.435 197.984C198.435 198.72 198.622 199.317 198.995 199.776C199.369 200.235 199.833 200.464 200.387 200.464C200.963 200.464 201.443 200.245 201.827 199.808C202.211 199.36 202.403 198.715 202.403 197.872C202.403 197.051 202.201 196.437 201.795 196.032C201.39 195.616 200.926 195.408 200.403 195.408C199.849 195.408 199.379 195.637 198.995 196.096C198.622 196.544 198.435 197.173 198.435 197.984ZM204.323 202H202.403V200.736C201.849 201.653 201.027 202.112 199.939 202.112C198.873 202.112 198.025 201.707 197.395 200.896C196.777 200.085 196.467 199.104 196.467 197.952C196.467 196.672 196.793 195.659 197.443 194.912C198.105 194.155 198.947 193.776 199.971 193.776C201.027 193.776 201.838 194.229 202.403 195.136V190.688H204.323V202Z" fill="#46596A"/>
<g clip-path="url(#clip0_2214_73139)">
<path d="M72.0988 120.306H52.1822C51.68 120.306 51.2715 119.875 51.2715 119.344C51.2715 118.814 51.68 118.383 52.1822 118.383H72.0988C72.6009 118.383 73.0093 118.814 73.0093 119.344C73.0093 119.875 72.6009 120.306 72.0988 120.306H72.0988Z" fill="#FC007F"/>
<path d="M36.5293 125.456C36.5293 125.629 36.6607 125.767 36.8243 125.767H87.4579C87.6214 125.767 87.7528 125.629 87.7528 125.456C87.7528 125.283 87.6214 125.144 87.4579 125.144H36.8243C36.6607 125.144 36.5293 125.283 36.5293 125.456Z" fill="#3F3D56"/>
<path d="M143.358 62.6799C152.256 62.6799 159.469 55.0606 159.469 45.6618C159.469 36.2629 152.256 28.6437 143.358 28.6437C134.461 28.6437 127.248 36.2629 127.248 45.6618C127.248 55.0606 134.461 62.6799 143.358 62.6799Z" fill="#FF6884"/>
<path d="M23 146.96C23 147.133 23.1314 147.272 23.295 147.272H152.745C152.909 147.272 153.04 147.133 153.04 146.96C153.04 146.787 152.909 146.649 152.745 146.649H23.295C23.1314 146.649 23 146.787 23 146.96Z" fill="#3F3D56"/>
<path d="M24.8731 125.92L24.459 125.441L64.8746 86.4834L79.4356 93.3787L95.1594 64.8946L108.078 58.3168L120.047 79.3897C126.509 61.7174 142.716 43.2281 162.135 24.4694L162.613 24.8779C144.399 43.2979 128.816 61.8015 119.972 80.5194L108.901 60.9703C108.378 60.0468 107.279 59.6901 106.355 60.1441L106.355 60.1441C99.2938 63.6149 93.4038 69.2803 89.4729 76.3827L79.6234 94.1787L77.3751 93.1141C69.8557 89.5534 61.053 91.0458 54.966 96.9131L24.8731 125.92Z" fill="#3F3D56"/>
<path d="M163.047 28.0161L162.434 28.0611L161.444 25.7944L159.227 25.3187L159.141 24.6754L162.795 24.1268L163.047 28.0161Z" fill="#3F3D56"/>
<path d="M100.004 41.8855L102.176 33.063L110.64 32.6329L113.172 44.7945L100.004 41.8855Z" fill="#FFB6B6"/>
<path opacity="0.1" d="M100.004 41.8855L102.176 33.063L110.64 32.6329L113.172 44.7945L100.004 41.8855Z" fill="black"/>
<path d="M105.573 38.0003C111.215 38.0003 115.788 33.169 115.788 27.2092C115.788 21.2494 111.215 16.4181 105.573 16.4181C99.9311 16.4181 95.3574 21.2494 95.3574 27.2092C95.3574 33.169 99.9311 38.0003 105.573 38.0003Z" fill="#FFB6B6"/>
<path d="M111.209 29.4933H111.209C111.209 29.4933 107.328 21.3711 102.781 21.8401C98.2341 22.309 95.8387 22.8793 95.8387 22.8793C95.8387 22.8793 94.489 16.5533 100.843 14.12C100.843 14.12 92.764 5.70683 102.383 1.57979C112.003 -2.54726 117.385 2.71626 117.385 2.71626C117.385 2.71626 124.506 10.225 115.538 15.8372C115.538 15.8372 122.197 25.2989 114.135 33.0975C114.135 33.0975 115.938 26.7867 114.056 27.9505C112.175 29.1144 111.209 29.4933 111.209 29.4933V29.4934L111.209 29.4933L111.209 29.4933Z" fill="#2F2E41"/>
<path d="M94.3009 86.5074L92.942 87.8832L83.1254 110.118L82.0508 146.896H98.5442L106.281 128.683L111.494 146.72H126.324L129.762 113.977L120.521 90.8209L94.3009 86.5074Z" fill="#2F2E41"/>
<path d="M111.387 40.989H100.372L88.3906 47.7997L91.1845 60.9672C91.1845 60.9672 90.5398 68.913 92.0442 74.8157C93.5486 80.7183 92.9038 88.4371 92.9038 88.4371L120.52 90.8209L121.38 64.032L120.95 46.0971L111.387 40.989V40.989Z" fill="#E6E6E6"/>
<path d="M90.218 47.9132C90.218 47.9132 83.5557 48.1402 82.4811 52.6807C81.4065 57.2212 80.5469 80.6047 80.5469 80.6047C80.5469 80.6047 81.1916 94.48 88.3913 87.8829C95.5909 81.2858 94.9462 61.3077 94.9462 61.3077L90.218 47.9132Z" fill="#E6E6E6"/>
<path d="M154.839 163.738H115.578C114.248 163.738 113.166 162.596 113.166 161.191V118.316C113.166 116.911 114.248 115.769 115.578 115.769H154.839C156.169 115.769 157.251 116.911 157.251 118.316V161.191C157.251 162.596 156.169 163.738 154.839 163.738Z" fill="white"/>
<path d="M154.839 164H115.577C114.111 164 112.918 162.74 112.918 161.191V118.316C112.918 116.767 114.111 115.507 115.577 115.507H154.839C156.306 115.507 157.499 116.767 157.499 118.316V161.191C157.499 162.74 156.306 164 154.839 164ZM115.577 116.031C114.384 116.031 113.414 117.056 113.414 118.316V161.191C113.414 162.451 114.384 163.476 115.577 163.476H154.839C156.032 163.476 157.003 162.451 157.003 161.191V118.316C157.003 117.056 156.032 116.031 154.839 116.031H115.577Z" fill="#3F3D56"/>
<path d="M136.759 152.475H133.523C133.129 152.475 132.809 152.213 132.809 151.892V137.175C132.809 136.854 133.129 136.592 133.523 136.592H136.759C137.153 136.592 137.474 136.854 137.474 137.175V151.892C137.474 152.213 137.153 152.475 136.759 152.475Z" fill="#FC007F"/>
<path d="M126.06 143.802C125.741 143.802 125.482 144.013 125.482 144.272V151.876C125.482 152.135 125.741 152.346 126.06 152.346H129.296C129.614 152.346 129.873 152.135 129.873 151.876V144.272C129.873 144.013 129.614 143.802 129.296 143.802H126.06Z" fill="#FC007F"/>
<path d="M144.22 152.475H140.984C140.59 152.475 140.27 152.213 140.27 151.892V127.773C140.27 127.452 140.59 127.191 140.984 127.191H144.22C144.614 127.191 144.934 127.452 144.934 127.773V151.892C144.934 152.213 144.614 152.475 144.22 152.475Z" fill="#FC007F"/>
<path d="M74.5829 46.7532H70.8865C70.4364 46.7532 70.0703 46.4547 70.0703 46.0878V29.2766C70.0703 28.9096 70.4364 28.6111 70.8865 28.6111H74.5829C75.033 28.6111 75.3991 28.9096 75.3991 29.2766V46.0878C75.3991 46.4547 75.033 46.7532 74.5829 46.7532V46.7532V46.7532Z" fill="#FC007F"/>
<path d="M62.3626 36.8462C61.999 36.8462 61.7031 37.0874 61.7031 37.3839V46.0689C61.7031 46.3654 61.999 46.6066 62.3626 46.6066H66.059C66.4226 46.6066 66.7184 46.3654 66.7184 46.0689V37.3839C66.7184 37.0874 66.4226 36.8462 66.059 36.8462H62.3626Z" fill="#FC007F"/>
<path d="M83.1083 46.7532H79.4119C78.9618 46.7532 78.5957 46.4547 78.5957 46.0877V18.5372C78.5957 18.1702 78.9618 17.8717 79.4119 17.8717H83.1083C83.5583 17.8717 83.9244 18.1702 83.9244 18.5372V46.0877C83.9244 46.4547 83.5583 46.7532 83.1083 46.7532V46.7532V46.7532Z" fill="#FC007F"/>
<path d="M129.189 122.007C131.104 121.813 132.422 119.08 132.134 115.901C132.035 114.63 131.65 113.402 131.01 112.32L130.641 108.722L130.697 108.704L131.625 91.6445C131.841 87.6779 130.354 83.7803 127.491 81.2046C125.787 79.6724 123.97 78.8966 122.801 80.8326C120.862 84.0449 123.374 97.2869 125.023 104.815L125.663 112.861C125.228 114.051 125.07 115.335 125.202 116.603C125.489 119.781 127.275 122.201 129.189 122.007V122.007Z" fill="#FFB6B6"/>
<path d="M118.588 46.5511C118.588 46.5511 124.176 44.2809 126.755 51.0916C129.334 57.9023 132.128 91.5019 132.128 91.5019L119.018 89.0047L118.588 46.5511V46.5511V46.5511Z" fill="#E6E6E6"/>
<path d="M41.8605 43.2198H34.3365C33.8343 43.2198 33.4258 42.7882 33.4258 42.2578C33.4258 41.7274 33.8343 41.296 34.3365 41.296H41.8605C42.3626 41.296 42.771 41.7274 42.771 42.2578C42.771 42.7882 42.3626 43.2198 41.8605 43.2198Z" fill="#E6E6E6"/>
<path d="M41.8605 29.5847H34.3365C33.8343 29.5847 33.4258 29.1531 33.4258 28.6227C33.4258 28.0923 33.8343 27.6609 34.3365 27.6609H41.8605C42.3626 27.6609 42.771 28.0923 42.771 28.6227C42.771 29.1531 42.3626 29.5847 41.8605 29.5847Z" fill="#E6E6E6"/>
<path d="M41.8605 19.7515H34.3365C33.8343 19.7515 33.4258 19.32 33.4258 18.7895C33.4258 18.2591 33.8343 17.8278 34.3365 17.8278H41.8605C42.3626 17.8278 42.771 18.2591 42.771 18.7895C42.771 19.32 42.3626 19.7515 41.8605 19.7515Z" fill="#E6E6E6"/>
<path d="M33.123 46.8008C33.123 46.9736 33.2544 47.1124 33.418 47.1124H84.0516C84.2152 47.1124 84.3466 46.9736 84.3466 46.8008C84.3466 46.628 84.2152 46.4893 84.0516 46.4893H33.418C33.2544 46.4893 33.123 46.628 33.123 46.8008Z" fill="#3F3D56"/>
<path d="M130.777 127.44C130.777 127.613 130.909 127.752 131.072 127.752H181.706C181.869 127.752 182.001 127.613 182.001 127.44C182.001 127.268 181.869 127.129 181.706 127.129H131.072C130.909 127.129 130.777 127.268 130.777 127.44Z" fill="#3F3D56"/>
<path d="M115.906 152.837C115.906 153.01 116.038 153.148 116.201 153.148H166.835C166.998 153.148 167.13 153.01 167.13 152.837C167.13 152.664 166.998 152.525 166.835 152.525H116.201C116.038 152.525 115.906 152.664 115.906 152.837Z" fill="#3F3D56"/>
<path d="M81.8575 45.2257C79.9429 45.4194 78.6245 48.1523 78.9125 51.3313C79.0111 52.6029 79.3965 53.831 80.0365 54.9129L80.4056 58.5109L80.349 58.5288L79.4215 75.5882C79.2059 79.5548 80.6923 83.4524 83.556 86.0281C85.2596 87.5603 87.0769 88.3361 88.2456 86.4001C90.1847 83.1878 87.6729 69.9458 86.0235 62.4173L85.384 54.3722C85.8184 53.1813 85.9765 51.8979 85.8449 50.6293C85.5574 47.4513 83.772 45.0321 81.8575 45.2257H81.8575V45.2257Z" fill="#FFB6B6"/>
</g>
<defs>
<clipPath id="clip0_2214_73139">
<rect width="159" height="164" fill="white" transform="translate(23)"/>
</clipPath>
</defs>
</svg>
